<svg width="24" height="24" viewBox="0 0 24 24" fill="none" xmlns="http://www.w3.org/2000/svg">
<path d="M18.5744 1.71822L22.2828 5.42678C23.308 6.45191 23.308 8.11396 22.2828 9.13909L19.2677 12.1537C20.5312 12.3432 21.5 13.4332 21.5 14.7495V20.8745C21.5 22.3242 20.3247 23.4995 18.875 23.4995H3.125C1.67525 23.4995 0.5 22.3242 0.5 20.8745V5.1245C0.5 3.67475 1.67525 2.4995 3.125 2.4995H9.25C10.567 2.4995 11.6576 3.46952 11.8462 4.73413L14.862 1.71822C15.8872 0.69309 17.5492 0.69309 18.5744 1.71822ZM2.25 20.8745C2.25 21.3578 2.64176 21.7495 3.125 21.7495L10.1238 21.7487L10.125 13.8745L2.25 13.8737V20.8745ZM11.8738 21.7487L18.875 21.7495C19.3582 21.7495 19.75 21.3578 19.75 20.8745V14.7495C19.75 14.2663 19.3582 13.8745 18.875 13.8745L11.8738 13.8737V21.7487ZM9.25 4.2495H3.125C2.64176 4.2495 2.25 4.64124 2.25 5.1245V12.1237H10.125V5.1245C10.125 4.64124 9.73323 4.2495 9.25 4.2495ZM11.875 9.86037V12.1245L14.1383 12.1237L11.875 9.86037ZM16.0994 2.95565L12.3909 6.66422C12.0492 7.00592 12.0492 7.55995 12.3909 7.90165L16.0994 11.6103C16.4411 11.952 16.9951 11.952 17.3369 11.6103L21.0455 7.90165C21.3872 7.55995 21.3872 7.00592 21.0455 6.66422L17.3369 2.95565C16.9951 2.61395 16.4411 2.61395 16.0994 2.95565Z" fill="#C4C4C4"/>
<path d="M16.0994 2.95565L12.3909 6.66422C12.0492 7.00592 12.0492 7.55995 12.3909 7.90165L16.0994 11.6103C16.4411 11.952 16.9951 11.952 17.3369 11.6103L21.0455 7.90165C21.3872 7.55995 21.3872 7.00592 21.0455 6.66422L17.3369 2.95565C16.9951 2.61395 16.4411 2.61395 16.0994 2.95565Z" fill="#C4C4C4"/>
</svg>
