<svg width="28" height="28" viewBox="0 0 28 28" fill="none" xmlns="http://www.w3.org/2000/svg">
<path d="M9.54935 14.7L10.9473 15.9232C11.2382 16.1778 11.2677 16.62 11.0131 16.911C10.7585 17.2019 10.3163 17.2313 10.0254 16.9768L7.22536 14.5268C7.07345 14.394 6.98631 14.2019 6.98631 14C6.98631 13.7982 7.07345 13.6061 7.22536 13.4732L10.0254 11.0232C10.3163 10.7686 10.7585 10.7981 11.0131 11.0891C11.2677 11.38 11.2382 11.8222 10.9473 12.0768L9.54932 13.3H14.7C15.0865 13.3 15.4 13.6134 15.4 14C15.4 14.3867 15.0865 14.7 14.7 14.7H9.54935ZM25.2 19.6C25.2 21.1464 23.9464 22.4 22.4 22.4H5.59999C4.05359 22.4 2.79999 21.1464 2.79999 19.6V8.40001C2.79999 6.85361 4.05359 5.60001 5.59999 5.60001H22.4C23.9464 5.60001 25.2 6.85361 25.2 8.40001V19.6ZM16.8 21V7.00001H5.59999C4.8268 7.00001 4.19999 7.6268 4.19999 8.40001V19.6C4.19999 20.3732 4.8268 21 5.59999 21H16.8Z" fill="#212121"/>
</svg>
