<svg width="24" height="24" viewBox="0 0 24 24" fill="none" xmlns="http://www.w3.org/2000/svg">
<path d="M12.5902 4.91804C12.5902 2.20188 14.792 0 17.5082 0H23.8033C23.9119 0 24 0.0880751 24 0.196721V6.4918C24 9.20795 21.7981 11.4098 19.082 11.4098H12.5902V4.91804Z" fill="#C4C4C4"/>
<path d="M12.5902 19.082C12.5902 21.7981 14.792 24 17.5082 24H23.8033C23.9119 24 24 23.9119 24 23.8033V17.5082C24 14.792 21.7981 12.5902 19.082 12.5902H12.5902V19.082Z" fill="#C4C4C4"/>
<path d="M11.4098 4.91804C11.4098 2.20188 9.20796 0 6.4918 0H0.196722C0.0880756 0 0 0.0880751 0 0.196721V6.4918C0 9.20795 2.20188 11.4098 4.91803 11.4098H11.4098V4.91804Z" fill="#C4C4C4"/>
<path d="M11.4098 19.082C11.4098 21.7981 9.20796 24 6.4918 24H0.196722C0.0880756 24 0 23.9119 0 23.8033V17.5082C0 14.792 2.20188 12.5902 4.91803 12.5902H11.4098V19.082Z" fill="#C4C4C4"/>
</svg>
